<mxfile host="app.diagrams.net" modified="2023-12-14T16:18:56.672Z" agent="Mozilla/5.0 (X11; Linux x86_64) AppleWebKit/537.36 (KHTML, like Gecko) Chrome/87.0.4280.66 Safari/537.36" etag="2q7fujt8I6q8F6Y1jo66" version="22.1.8" type="device" pages="2">
  <diagram name="Diagrama ER-E" id="NY-xDYAk5dMs4M5XbQsN">
    <mxGraphModel dx="2282" dy="719" grid="1" gridSize="10" guides="1" tooltips="1" connect="1" arrows="1" fold="1" page="1" pageScale="1" pageWidth="850" pageHeight="1100" math="0" shadow="0">
      <root>
        <mxCell id="0" />
        <mxCell id="1" parent="0" />
        <mxCell id="05HgWboLyQbUdNQATnHq-1" value="&lt;font style=&quot;font-size: 18px;&quot;&gt;&lt;b&gt;USUARIO&lt;/b&gt;&lt;/font&gt;" style="swimlane;childLayout=stackLayout;horizontal=1;startSize=50;horizontalStack=0;rounded=1;fontSize=14;fontStyle=0;strokeWidth=2;resizeParent=0;resizeLast=1;shadow=0;dashed=0;align=center;arcSize=4;whiteSpace=wrap;html=1;fillColor=#d5e8d4;strokeColor=#82b366;" parent="1" vertex="1">
          <mxGeometry x="120" y="152" width="160" height="158" as="geometry" />
        </mxCell>
        <mxCell id="05HgWboLyQbUdNQATnHq-2" value="&lt;font style=&quot;font-size: 16px;&quot;&gt;&lt;u&gt;&lt;b&gt;Email&lt;/b&gt;&lt;/u&gt;&lt;b&gt;&lt;br&gt;U.&lt;/b&gt; Nickname&lt;br&gt;Nombre&lt;br&gt;FechaAlta&lt;br&gt;&lt;b&gt;N.&lt;/b&gt; FechaBaja&lt;br&gt;&lt;/font&gt;" style="align=left;strokeColor=none;fillColor=none;spacingLeft=4;fontSize=12;verticalAlign=top;resizable=0;rotatable=0;part=1;html=1;" parent="05HgWboLyQbUdNQATnHq-1" vertex="1">
          <mxGeometry y="50" width="160" height="108" as="geometry" />
        </mxCell>
        <mxCell id="05HgWboLyQbUdNQATnHq-3" value="&lt;font style=&quot;font-size: 18px;&quot;&gt;&lt;b&gt;ROL&lt;/b&gt;&lt;/font&gt;" style="swimlane;childLayout=stackLayout;horizontal=1;startSize=50;horizontalStack=0;rounded=1;fontSize=14;fontStyle=0;strokeWidth=2;resizeParent=0;resizeLast=1;shadow=0;dashed=0;align=center;arcSize=4;whiteSpace=wrap;html=1;fillColor=#e1d5e7;strokeColor=#9673a6;" parent="1" vertex="1">
          <mxGeometry x="540" y="151" width="160" height="120" as="geometry" />
        </mxCell>
        <mxCell id="05HgWboLyQbUdNQATnHq-4" value="&lt;font style=&quot;font-size: 16px;&quot;&gt;&lt;b&gt;&lt;u&gt;&lt;font style=&quot;font-size: 16px;&quot;&gt;Código Rol&lt;/font&gt;&lt;/u&gt;&lt;/b&gt;&lt;br&gt;&lt;/font&gt;&lt;div style=&quot;font-size: 16px;&quot;&gt;&lt;font style=&quot;font-size: 16px;&quot;&gt;Nombre&lt;/font&gt;&lt;/div&gt;&lt;div style=&quot;font-size: 16px;&quot;&gt;&lt;font style=&quot;font-size: 16px;&quot;&gt;&lt;b&gt;N.&lt;/b&gt; Descripción&lt;/font&gt;&lt;/div&gt;" style="align=left;strokeColor=none;fillColor=none;spacingLeft=4;fontSize=12;verticalAlign=top;resizable=0;rotatable=0;part=1;html=1;" parent="05HgWboLyQbUdNQATnHq-3" vertex="1">
          <mxGeometry y="50" width="160" height="70" as="geometry" />
        </mxCell>
        <mxCell id="05HgWboLyQbUdNQATnHq-7" value="&lt;b&gt;PERMISO&lt;/b&gt;" style="swimlane;childLayout=stackLayout;horizontal=1;startSize=50;horizontalStack=0;rounded=1;fontSize=14;fontStyle=0;strokeWidth=2;resizeParent=0;resizeLast=1;shadow=0;dashed=0;align=center;arcSize=4;whiteSpace=wrap;html=1;fillColor=#f8cecc;strokeColor=#b85450;" parent="1" vertex="1">
          <mxGeometry x="980" y="151" width="190" height="120" as="geometry" />
        </mxCell>
        <mxCell id="05HgWboLyQbUdNQATnHq-8" value="&lt;font style=&quot;font-size: 16px;&quot;&gt;&lt;b&gt;&lt;u&gt;&lt;font style=&quot;font-size: 16px;&quot;&gt;Identificador Permiso&lt;/font&gt;&lt;/u&gt;&lt;/b&gt;&lt;br&gt;&lt;/font&gt;&lt;div style=&quot;font-size: 16px;&quot;&gt;&lt;font style=&quot;font-size: 16px;&quot;&gt;Nombre Corto&lt;br&gt;&lt;/font&gt;&lt;/div&gt;&lt;div style=&quot;font-size: 16px;&quot;&gt;&lt;font style=&quot;font-size: 16px;&quot;&gt;Descripción&lt;/font&gt;&lt;/div&gt;" style="align=left;strokeColor=none;fillColor=none;spacingLeft=4;fontSize=12;verticalAlign=top;resizable=0;rotatable=0;part=1;html=1;" parent="05HgWboLyQbUdNQATnHq-7" vertex="1">
          <mxGeometry y="50" width="190" height="70" as="geometry" />
        </mxCell>
        <mxCell id="05HgWboLyQbUdNQATnHq-9" value="&lt;font style=&quot;font-size: 16px;&quot;&gt;&lt;b&gt;Asignar&lt;/b&gt;&lt;/font&gt;" style="shape=rhombus;perimeter=rhombusPerimeter;whiteSpace=wrap;html=1;align=center;" parent="1" vertex="1">
          <mxGeometry x="340" y="189" width="120" height="60" as="geometry" />
        </mxCell>
        <mxCell id="05HgWboLyQbUdNQATnHq-10" value="&lt;b&gt;&lt;font style=&quot;font-size: 16px;&quot;&gt;Ofrecer&lt;/font&gt;&lt;/b&gt;" style="shape=rhombus;perimeter=rhombusPerimeter;whiteSpace=wrap;html=1;align=center;" parent="1" vertex="1">
          <mxGeometry x="770" y="188" width="120" height="60" as="geometry" />
        </mxCell>
        <mxCell id="05HgWboLyQbUdNQATnHq-11" value="" style="endArrow=none;html=1;rounded=0;exitX=1.008;exitY=0.154;exitDx=0;exitDy=0;entryX=0;entryY=0.5;entryDx=0;entryDy=0;startArrow=ERoneToMany;startFill=0;exitPerimeter=0;" parent="1" source="05HgWboLyQbUdNQATnHq-2" target="05HgWboLyQbUdNQATnHq-9" edge="1">
          <mxGeometry relative="1" as="geometry">
            <mxPoint x="280" y="220.5" as="sourcePoint" />
            <mxPoint x="340" y="222" as="targetPoint" />
          </mxGeometry>
        </mxCell>
        <mxCell id="05HgWboLyQbUdNQATnHq-13" value="" style="endArrow=ERoneToMany;html=1;rounded=0;exitX=1;exitY=0.5;exitDx=0;exitDy=0;entryX=0;entryY=0.25;entryDx=0;entryDy=0;endFill=0;" parent="1" source="05HgWboLyQbUdNQATnHq-9" target="05HgWboLyQbUdNQATnHq-4" edge="1">
          <mxGeometry relative="1" as="geometry">
            <mxPoint x="620" y="320" as="sourcePoint" />
            <mxPoint x="780" y="320" as="targetPoint" />
          </mxGeometry>
        </mxCell>
        <mxCell id="05HgWboLyQbUdNQATnHq-15" value="" style="endArrow=none;html=1;rounded=0;exitX=1;exitY=0.25;exitDx=0;exitDy=0;entryX=0;entryY=0.5;entryDx=0;entryDy=0;startArrow=ERoneToMany;startFill=0;" parent="1" source="05HgWboLyQbUdNQATnHq-4" target="05HgWboLyQbUdNQATnHq-10" edge="1">
          <mxGeometry relative="1" as="geometry">
            <mxPoint x="620" y="230" as="sourcePoint" />
            <mxPoint x="780" y="230" as="targetPoint" />
          </mxGeometry>
        </mxCell>
        <mxCell id="05HgWboLyQbUdNQATnHq-16" value="" style="endArrow=ERoneToMany;html=1;rounded=0;entryX=0;entryY=0.25;entryDx=0;entryDy=0;exitX=1;exitY=0.5;exitDx=0;exitDy=0;endFill=0;" parent="1" source="05HgWboLyQbUdNQATnHq-10" target="05HgWboLyQbUdNQATnHq-8" edge="1">
          <mxGeometry relative="1" as="geometry">
            <mxPoint x="620" y="230" as="sourcePoint" />
            <mxPoint x="780" y="230" as="targetPoint" />
          </mxGeometry>
        </mxCell>
        <mxCell id="05HgWboLyQbUdNQATnHq-17" value="&lt;b&gt;&lt;font style=&quot;font-size: 14px;&quot;&gt;(1,n)&lt;/font&gt;&lt;/b&gt;" style="text;html=1;align=center;verticalAlign=middle;resizable=0;points=[];autosize=1;strokeColor=none;fillColor=none;" parent="1" vertex="1">
          <mxGeometry x="280" y="182" width="50" height="30" as="geometry" />
        </mxCell>
        <mxCell id="05HgWboLyQbUdNQATnHq-18" value="&lt;b&gt;&lt;font style=&quot;font-size: 14px;&quot;&gt;(1,n)&lt;/font&gt;&lt;/b&gt;" style="text;html=1;align=center;verticalAlign=middle;resizable=0;points=[];autosize=1;strokeColor=none;fillColor=none;" parent="1" vertex="1">
          <mxGeometry x="490" y="189" width="50" height="30" as="geometry" />
        </mxCell>
        <mxCell id="05HgWboLyQbUdNQATnHq-20" value="&lt;b&gt;&lt;font style=&quot;font-size: 14px;&quot;&gt;(1,n)&lt;/font&gt;&lt;/b&gt;" style="text;html=1;align=center;verticalAlign=middle;resizable=0;points=[];autosize=1;strokeColor=none;fillColor=none;" parent="1" vertex="1">
          <mxGeometry x="700" y="180" width="50" height="30" as="geometry" />
        </mxCell>
        <mxCell id="05HgWboLyQbUdNQATnHq-21" value="&lt;b&gt;&lt;font style=&quot;font-size: 14px;&quot;&gt;(1,n)&lt;/font&gt;&lt;/b&gt;" style="text;html=1;align=center;verticalAlign=middle;resizable=0;points=[];autosize=1;strokeColor=none;fillColor=none;" parent="1" vertex="1">
          <mxGeometry x="930" y="180" width="50" height="30" as="geometry" />
        </mxCell>
        <mxCell id="05HgWboLyQbUdNQATnHq-22" value="&lt;font color=&quot;#99004d&quot; style=&quot;font-size: 18px;&quot;&gt;&lt;b&gt;N:M&lt;/b&gt;&lt;/font&gt;" style="text;html=1;align=center;verticalAlign=middle;resizable=0;points=[];autosize=1;strokeColor=none;fillColor=none;" parent="1" vertex="1">
          <mxGeometry x="370" y="150" width="60" height="40" as="geometry" />
        </mxCell>
        <mxCell id="05HgWboLyQbUdNQATnHq-23" value="&lt;font color=&quot;#99004d&quot; style=&quot;font-size: 18px;&quot;&gt;&lt;b&gt;N:M&lt;/b&gt;&lt;/font&gt;" style="text;html=1;align=center;verticalAlign=middle;resizable=0;points=[];autosize=1;strokeColor=none;fillColor=none;" parent="1" vertex="1">
          <mxGeometry x="800" y="149" width="60" height="40" as="geometry" />
        </mxCell>
        <mxCell id="_pmoKBT2sbfhasMyid_L-1" value="&lt;font style=&quot;font-size: 18px;&quot;&gt;&lt;b&gt;PERSONAL&lt;/b&gt;&lt;/font&gt;" style="swimlane;childLayout=stackLayout;horizontal=1;startSize=50;horizontalStack=0;rounded=1;fontSize=14;fontStyle=0;strokeWidth=2;resizeParent=0;resizeLast=1;shadow=0;dashed=0;align=center;arcSize=4;whiteSpace=wrap;html=1;fillColor=#ffe6cc;strokeColor=#d79b00;" parent="1" vertex="1">
          <mxGeometry x="120" y="475" width="160" height="148" as="geometry" />
        </mxCell>
        <mxCell id="_pmoKBT2sbfhasMyid_L-2" value="&lt;font style=&quot;font-size: 16px;&quot;&gt;&lt;u&gt;&lt;b&gt;DNI&lt;/b&gt;&lt;/u&gt;&lt;br&gt;Nombre&lt;br&gt;Apellido1&lt;br&gt;&lt;b&gt;N.&lt;/b&gt; Apellido2&lt;/font&gt;" style="align=left;strokeColor=none;fillColor=none;spacingLeft=4;fontSize=12;verticalAlign=top;resizable=0;rotatable=0;part=1;html=1;" parent="_pmoKBT2sbfhasMyid_L-1" vertex="1">
          <mxGeometry y="50" width="160" height="98" as="geometry" />
        </mxCell>
        <mxCell id="_pmoKBT2sbfhasMyid_L-3" value="&lt;b&gt;&lt;font style=&quot;font-size: 18px;&quot;&gt;Asociar&lt;/font&gt;&lt;/b&gt;" style="shape=rhombus;perimeter=rhombusPerimeter;whiteSpace=wrap;html=1;align=center;" parent="1" vertex="1">
          <mxGeometry x="145" y="360" width="110" height="60" as="geometry" />
        </mxCell>
        <mxCell id="_pmoKBT2sbfhasMyid_L-4" value="" style="endArrow=ERzeroToOne;html=1;rounded=0;endFill=0;exitX=0.5;exitY=0;exitDx=0;exitDy=0;entryX=0.5;entryY=1;entryDx=0;entryDy=0;" parent="1" source="_pmoKBT2sbfhasMyid_L-3" target="05HgWboLyQbUdNQATnHq-2" edge="1">
          <mxGeometry relative="1" as="geometry">
            <mxPoint x="70" y="310" as="sourcePoint" />
            <mxPoint x="230" y="310" as="targetPoint" />
          </mxGeometry>
        </mxCell>
        <mxCell id="_pmoKBT2sbfhasMyid_L-5" value="" style="endArrow=ERzeroToOne;html=1;rounded=0;endFill=0;exitX=0.5;exitY=1;exitDx=0;exitDy=0;entryX=0.5;entryY=0;entryDx=0;entryDy=0;" parent="1" source="_pmoKBT2sbfhasMyid_L-3" target="_pmoKBT2sbfhasMyid_L-1" edge="1">
          <mxGeometry relative="1" as="geometry">
            <mxPoint x="80" y="320" as="sourcePoint" />
            <mxPoint x="240" y="320" as="targetPoint" />
          </mxGeometry>
        </mxCell>
        <mxCell id="_pmoKBT2sbfhasMyid_L-6" value="&lt;b&gt;&lt;font style=&quot;font-size: 14px;&quot;&gt;(0,1)&lt;/font&gt;&lt;/b&gt;" style="text;html=1;align=center;verticalAlign=middle;resizable=0;points=[];autosize=1;strokeColor=none;fillColor=none;" parent="1" vertex="1">
          <mxGeometry x="140" y="440" width="50" height="30" as="geometry" />
        </mxCell>
        <mxCell id="_pmoKBT2sbfhasMyid_L-7" value="&lt;b&gt;&lt;font style=&quot;font-size: 14px;&quot;&gt;(0,1)&lt;/font&gt;&lt;/b&gt;" style="text;html=1;align=center;verticalAlign=middle;resizable=0;points=[];autosize=1;strokeColor=none;fillColor=none;" parent="1" vertex="1">
          <mxGeometry x="125" y="310" width="50" height="30" as="geometry" />
        </mxCell>
        <mxCell id="_pmoKBT2sbfhasMyid_L-10" value="&lt;font color=&quot;#99004d&quot; style=&quot;font-size: 18px;&quot;&gt;&lt;b&gt;1:1&lt;/b&gt;&lt;/font&gt;" style="text;html=1;align=center;verticalAlign=middle;resizable=0;points=[];autosize=1;strokeColor=none;fillColor=none;" parent="1" vertex="1">
          <mxGeometry x="255" y="370" width="50" height="40" as="geometry" />
        </mxCell>
        <mxCell id="_pmoKBT2sbfhasMyid_L-11" value="&lt;font style=&quot;font-size: 18px;&quot;&gt;&lt;b&gt;PROFESOR&lt;/b&gt;&lt;/font&gt;" style="swimlane;childLayout=stackLayout;horizontal=1;startSize=50;horizontalStack=0;rounded=1;fontSize=14;fontStyle=0;strokeWidth=2;resizeParent=0;resizeLast=1;shadow=0;dashed=0;align=center;arcSize=4;whiteSpace=wrap;html=1;fillColor=#ffe6cc;strokeColor=#d79b00;" parent="1" vertex="1">
          <mxGeometry x="330" y="800" width="160" height="148" as="geometry" />
        </mxCell>
        <mxCell id="_pmoKBT2sbfhasMyid_L-12" value="&lt;font style=&quot;font-size: 16px;&quot;&gt;&lt;b&gt;&lt;u&gt;Código&lt;br&gt;&lt;/u&gt;&lt;/b&gt;NúmeroGrados&lt;br&gt;&lt;/font&gt;" style="align=left;strokeColor=none;fillColor=none;spacingLeft=4;fontSize=12;verticalAlign=top;resizable=0;rotatable=0;part=1;html=1;" parent="_pmoKBT2sbfhasMyid_L-11" vertex="1">
          <mxGeometry y="50" width="160" height="98" as="geometry" />
        </mxCell>
        <mxCell id="_pmoKBT2sbfhasMyid_L-13" value="&lt;font style=&quot;font-size: 18px;&quot;&gt;&lt;b&gt;ALUMNO&lt;/b&gt;&lt;/font&gt;" style="swimlane;childLayout=stackLayout;horizontal=1;startSize=50;horizontalStack=0;rounded=1;fontSize=14;fontStyle=0;strokeWidth=2;resizeParent=0;resizeLast=1;shadow=0;dashed=0;align=center;arcSize=4;whiteSpace=wrap;html=1;fillColor=#ffe6cc;strokeColor=#d79b00;" parent="1" vertex="1">
          <mxGeometry x="120" y="800" width="160" height="148" as="geometry" />
        </mxCell>
        <mxCell id="_pmoKBT2sbfhasMyid_L-14" value="&lt;font style=&quot;font-size: 16px;&quot;&gt;&lt;b&gt;&lt;u&gt;NúmeroAlumno&lt;/u&gt;&lt;/b&gt;&lt;br&gt;&lt;/font&gt;" style="align=left;strokeColor=none;fillColor=none;spacingLeft=4;fontSize=12;verticalAlign=top;resizable=0;rotatable=0;part=1;html=1;" parent="_pmoKBT2sbfhasMyid_L-13" vertex="1">
          <mxGeometry y="50" width="160" height="98" as="geometry" />
        </mxCell>
        <mxCell id="_pmoKBT2sbfhasMyid_L-15" value="&lt;font style=&quot;font-size: 18px;&quot;&gt;&lt;b&gt;GESTOR&lt;/b&gt;&lt;/font&gt;" style="swimlane;childLayout=stackLayout;horizontal=1;startSize=50;horizontalStack=0;rounded=1;fontSize=14;fontStyle=0;strokeWidth=2;resizeParent=0;resizeLast=1;shadow=0;dashed=0;align=center;arcSize=4;whiteSpace=wrap;html=1;fillColor=#ffe6cc;strokeColor=#d79b00;" parent="1" vertex="1" collapsed="1">
          <mxGeometry x="-40" y="800" width="120" height="50" as="geometry">
            <mxRectangle x="-85" y="440" width="160" height="148" as="alternateBounds" />
          </mxGeometry>
        </mxCell>
        <mxCell id="_pmoKBT2sbfhasMyid_L-16" value="&lt;font style=&quot;font-size: 16px;&quot;&gt;&lt;br&gt;&lt;/font&gt;" style="align=left;strokeColor=none;fillColor=none;spacingLeft=4;fontSize=12;verticalAlign=top;resizable=0;rotatable=0;part=1;html=1;" parent="_pmoKBT2sbfhasMyid_L-15" vertex="1">
          <mxGeometry y="50" width="160" height="98" as="geometry" />
        </mxCell>
        <mxCell id="_pmoKBT2sbfhasMyid_L-17" value="" style="triangle;whiteSpace=wrap;html=1;rotation=90;" parent="1" vertex="1">
          <mxGeometry x="170" y="660" width="60" height="80" as="geometry" />
        </mxCell>
        <mxCell id="_pmoKBT2sbfhasMyid_L-18" value="" style="endArrow=none;html=1;rounded=0;exitX=0.5;exitY=1;exitDx=0;exitDy=0;entryX=0;entryY=0.5;entryDx=0;entryDy=0;" parent="1" source="_pmoKBT2sbfhasMyid_L-2" target="_pmoKBT2sbfhasMyid_L-17" edge="1">
          <mxGeometry width="50" height="50" relative="1" as="geometry">
            <mxPoint x="-70" y="340" as="sourcePoint" />
            <mxPoint x="-20" y="290" as="targetPoint" />
          </mxGeometry>
        </mxCell>
        <mxCell id="_pmoKBT2sbfhasMyid_L-19" value="" style="endArrow=none;html=1;rounded=0;exitX=0.5;exitY=0;exitDx=0;exitDy=0;entryX=0.5;entryY=0;entryDx=0;entryDy=0;" parent="1" source="_pmoKBT2sbfhasMyid_L-11" target="_pmoKBT2sbfhasMyid_L-17" edge="1">
          <mxGeometry width="50" height="50" relative="1" as="geometry">
            <mxPoint x="-70" y="340" as="sourcePoint" />
            <mxPoint x="-380" y="360" as="targetPoint" />
          </mxGeometry>
        </mxCell>
        <mxCell id="_pmoKBT2sbfhasMyid_L-22" value="" style="endArrow=ERoneToMany;html=1;rounded=0;endFill=0;exitX=0;exitY=0.5;exitDx=0;exitDy=0;entryX=1;entryY=0.25;entryDx=0;entryDy=0;" parent="1" source="_pmoKBT2sbfhasMyid_L-27" target="_pmoKBT2sbfhasMyid_L-12" edge="1">
          <mxGeometry width="50" height="50" relative="1" as="geometry">
            <mxPoint x="-70" y="340" as="sourcePoint" />
            <mxPoint x="-20" y="290" as="targetPoint" />
          </mxGeometry>
        </mxCell>
        <mxCell id="_pmoKBT2sbfhasMyid_L-23" value="" style="endArrow=none;html=1;rounded=0;exitX=0.5;exitY=1;exitDx=0;exitDy=0;entryX=0.5;entryY=0;entryDx=0;entryDy=0;" parent="1" source="_pmoKBT2sbfhasMyid_L-17" target="_pmoKBT2sbfhasMyid_L-15" edge="1">
          <mxGeometry width="50" height="50" relative="1" as="geometry">
            <mxPoint x="-60" y="340" as="sourcePoint" />
            <mxPoint x="-20" y="290" as="targetPoint" />
          </mxGeometry>
        </mxCell>
        <mxCell id="_pmoKBT2sbfhasMyid_L-24" value="" style="endArrow=none;html=1;rounded=0;exitX=1;exitY=0.5;exitDx=0;exitDy=0;entryX=0.5;entryY=0;entryDx=0;entryDy=0;" parent="1" source="_pmoKBT2sbfhasMyid_L-17" target="_pmoKBT2sbfhasMyid_L-13" edge="1">
          <mxGeometry width="50" height="50" relative="1" as="geometry">
            <mxPoint x="-70" y="340" as="sourcePoint" />
            <mxPoint x="-20" y="290" as="targetPoint" />
          </mxGeometry>
        </mxCell>
        <mxCell id="_pmoKBT2sbfhasMyid_L-25" value="&lt;font style=&quot;font-size: 18px;&quot;&gt;&lt;b&gt;FORMACION&lt;/b&gt;&lt;/font&gt;" style="swimlane;childLayout=stackLayout;horizontal=1;startSize=50;horizontalStack=0;rounded=1;fontSize=14;fontStyle=0;strokeWidth=2;resizeParent=0;resizeLast=1;shadow=0;dashed=0;align=center;arcSize=4;whiteSpace=wrap;html=1;fillColor=#f5f5f5;strokeColor=#666666;fontColor=#333333;" parent="1" vertex="1">
          <mxGeometry x="720" y="800" width="160" height="148" as="geometry" />
        </mxCell>
        <mxCell id="_pmoKBT2sbfhasMyid_L-26" value="&lt;font style=&quot;font-size: 16px;&quot;&gt;&lt;b&gt;&lt;u&gt;Identificador&lt;br&gt;&lt;/u&gt;&lt;/b&gt;Nombre&lt;br&gt;GradoUniversitario&lt;br&gt;&lt;/font&gt;" style="align=left;strokeColor=none;fillColor=none;spacingLeft=4;fontSize=12;verticalAlign=top;resizable=0;rotatable=0;part=1;html=1;" parent="_pmoKBT2sbfhasMyid_L-25" vertex="1">
          <mxGeometry y="50" width="160" height="98" as="geometry" />
        </mxCell>
        <mxCell id="_pmoKBT2sbfhasMyid_L-27" value="&lt;b&gt;&lt;font style=&quot;font-size: 18px;&quot;&gt;Tener&lt;/font&gt;&lt;/b&gt;" style="shape=rhombus;perimeter=rhombusPerimeter;whiteSpace=wrap;html=1;align=center;" parent="1" vertex="1">
          <mxGeometry x="560" y="844" width="80" height="60" as="geometry" />
        </mxCell>
        <mxCell id="_pmoKBT2sbfhasMyid_L-29" value="" style="endArrow=ERoneToMany;html=1;rounded=0;endFill=0;exitX=1;exitY=0.5;exitDx=0;exitDy=0;entryX=0;entryY=0.5;entryDx=0;entryDy=0;" parent="1" source="_pmoKBT2sbfhasMyid_L-27" target="_pmoKBT2sbfhasMyid_L-25" edge="1">
          <mxGeometry width="50" height="50" relative="1" as="geometry">
            <mxPoint x="-60" y="350" as="sourcePoint" />
            <mxPoint x="-10" y="300" as="targetPoint" />
          </mxGeometry>
        </mxCell>
        <mxCell id="_pmoKBT2sbfhasMyid_L-30" value="" style="shape=requiredInterface;html=1;verticalLabelPosition=bottom;sketch=0;rotation=90;" parent="1" vertex="1">
          <mxGeometry x="170" y="640" width="40" height="170" as="geometry" />
        </mxCell>
        <mxCell id="_pmoKBT2sbfhasMyid_L-31" value="&lt;font color=&quot;#99004d&quot; style=&quot;font-size: 18px;&quot;&gt;&lt;b&gt;N:M&lt;/b&gt;&lt;/font&gt;" style="text;html=1;align=center;verticalAlign=middle;resizable=0;points=[];autosize=1;strokeColor=none;fillColor=none;" parent="1" vertex="1">
          <mxGeometry x="570" y="804" width="60" height="40" as="geometry" />
        </mxCell>
        <mxCell id="_pmoKBT2sbfhasMyid_L-32" value="&lt;b&gt;&lt;font style=&quot;font-size: 14px;&quot;&gt;(1,n)&lt;/font&gt;&lt;/b&gt;" style="text;html=1;align=center;verticalAlign=middle;resizable=0;points=[];autosize=1;strokeColor=none;fillColor=none;" parent="1" vertex="1">
          <mxGeometry x="490" y="880" width="50" height="30" as="geometry" />
        </mxCell>
        <mxCell id="_pmoKBT2sbfhasMyid_L-33" value="&lt;b&gt;&lt;font style=&quot;font-size: 14px;&quot;&gt;(1,n)&lt;/font&gt;&lt;/b&gt;" style="text;html=1;align=center;verticalAlign=middle;resizable=0;points=[];autosize=1;strokeColor=none;fillColor=none;" parent="1" vertex="1">
          <mxGeometry x="665" y="880" width="50" height="30" as="geometry" />
        </mxCell>
      </root>
    </mxGraphModel>
  </diagram>
  <diagram id="_C2LsDbuMGb2VcSa5aKq" name="Diagrama Relacional">
    <mxGraphModel dx="2259" dy="-450" grid="1" gridSize="10" guides="1" tooltips="1" connect="1" arrows="1" fold="1" page="1" pageScale="1" pageWidth="827" pageHeight="1169" math="0" shadow="0">
      <root>
        <mxCell id="0" />
        <mxCell id="1" parent="0" />
        <mxCell id="vnzELrdjj4XrhpKjHz_1-1" value="&lt;font style=&quot;font-size: 18px;&quot;&gt;T_ROL&lt;/font&gt;" style="shape=table;startSize=30;container=1;collapsible=1;childLayout=tableLayout;fixedRows=1;rowLines=0;fontStyle=1;align=center;resizeLast=1;html=1;whiteSpace=wrap;fillColor=#e1d5e7;strokeColor=#9673a6;" vertex="1" parent="1">
          <mxGeometry x="665" y="1360" width="180" height="120" as="geometry" />
        </mxCell>
        <mxCell id="vnzELrdjj4XrhpKjHz_1-2" value="" style="shape=tableRow;horizontal=0;startSize=0;swimlaneHead=0;swimlaneBody=0;fillColor=none;collapsible=0;dropTarget=0;points=[[0,0.5],[1,0.5]];portConstraint=eastwest;top=0;left=0;right=0;bottom=0;html=1;" vertex="1" parent="vnzELrdjj4XrhpKjHz_1-1">
          <mxGeometry y="30" width="180" height="30" as="geometry" />
        </mxCell>
        <mxCell id="vnzELrdjj4XrhpKjHz_1-3" value="&lt;font style=&quot;font-size: 16px;&quot;&gt;PK&lt;/font&gt;" style="shape=partialRectangle;connectable=0;fillColor=none;top=0;left=0;bottom=0;right=0;fontStyle=1;overflow=hidden;html=1;whiteSpace=wrap;" vertex="1" parent="vnzELrdjj4XrhpKjHz_1-2">
          <mxGeometry width="60" height="30" as="geometry">
            <mxRectangle width="60" height="30" as="alternateBounds" />
          </mxGeometry>
        </mxCell>
        <mxCell id="vnzELrdjj4XrhpKjHz_1-4" value="&lt;font style=&quot;font-size: 16px;&quot;&gt;CodigoRol&lt;/font&gt;" style="shape=partialRectangle;connectable=0;fillColor=none;top=0;left=0;bottom=0;right=0;align=left;spacingLeft=6;fontStyle=5;overflow=hidden;html=1;whiteSpace=wrap;" vertex="1" parent="vnzELrdjj4XrhpKjHz_1-2">
          <mxGeometry x="60" width="120" height="30" as="geometry">
            <mxRectangle width="120" height="30" as="alternateBounds" />
          </mxGeometry>
        </mxCell>
        <mxCell id="vnzELrdjj4XrhpKjHz_1-5" value="" style="shape=tableRow;horizontal=0;startSize=0;swimlaneHead=0;swimlaneBody=0;fillColor=none;collapsible=0;dropTarget=0;points=[[0,0.5],[1,0.5]];portConstraint=eastwest;top=0;left=0;right=0;bottom=0;html=1;" vertex="1" parent="vnzELrdjj4XrhpKjHz_1-1">
          <mxGeometry y="60" width="180" height="30" as="geometry" />
        </mxCell>
        <mxCell id="vnzELrdjj4XrhpKjHz_1-6" value="" style="shape=partialRectangle;connectable=0;fillColor=none;top=0;left=0;bottom=0;right=0;editable=1;overflow=hidden;html=1;whiteSpace=wrap;" vertex="1" parent="vnzELrdjj4XrhpKjHz_1-5">
          <mxGeometry width="60" height="30" as="geometry">
            <mxRectangle width="60" height="30" as="alternateBounds" />
          </mxGeometry>
        </mxCell>
        <mxCell id="vnzELrdjj4XrhpKjHz_1-7" value="&lt;font style=&quot;font-size: 16px;&quot;&gt;Nombre&lt;/font&gt;" style="shape=partialRectangle;connectable=0;fillColor=none;top=0;left=0;bottom=0;right=0;align=left;spacingLeft=6;overflow=hidden;html=1;whiteSpace=wrap;" vertex="1" parent="vnzELrdjj4XrhpKjHz_1-5">
          <mxGeometry x="60" width="120" height="30" as="geometry">
            <mxRectangle width="120" height="30" as="alternateBounds" />
          </mxGeometry>
        </mxCell>
        <mxCell id="vnzELrdjj4XrhpKjHz_1-8" value="" style="shape=tableRow;horizontal=0;startSize=0;swimlaneHead=0;swimlaneBody=0;fillColor=none;collapsible=0;dropTarget=0;points=[[0,0.5],[1,0.5]];portConstraint=eastwest;top=0;left=0;right=0;bottom=0;html=1;" vertex="1" parent="vnzELrdjj4XrhpKjHz_1-1">
          <mxGeometry y="90" width="180" height="30" as="geometry" />
        </mxCell>
        <mxCell id="vnzELrdjj4XrhpKjHz_1-9" value="&lt;font size=&quot;1&quot;&gt;&lt;b style=&quot;font-size: 16px;&quot;&gt;N&lt;/b&gt;&lt;/font&gt;" style="shape=partialRectangle;connectable=0;fillColor=none;top=0;left=0;bottom=0;right=0;editable=1;overflow=hidden;html=1;whiteSpace=wrap;" vertex="1" parent="vnzELrdjj4XrhpKjHz_1-8">
          <mxGeometry width="60" height="30" as="geometry">
            <mxRectangle width="60" height="30" as="alternateBounds" />
          </mxGeometry>
        </mxCell>
        <mxCell id="vnzELrdjj4XrhpKjHz_1-10" value="&lt;font style=&quot;font-size: 16px;&quot;&gt;Descripcion&lt;/font&gt;" style="shape=partialRectangle;connectable=0;fillColor=none;top=0;left=0;bottom=0;right=0;align=left;spacingLeft=6;overflow=hidden;html=1;whiteSpace=wrap;" vertex="1" parent="vnzELrdjj4XrhpKjHz_1-8">
          <mxGeometry x="60" width="120" height="30" as="geometry">
            <mxRectangle width="120" height="30" as="alternateBounds" />
          </mxGeometry>
        </mxCell>
        <mxCell id="vnzELrdjj4XrhpKjHz_1-11" value="&lt;font style=&quot;font-size: 18px;&quot;&gt;T_USUARIO&lt;/font&gt;" style="shape=table;startSize=30;container=1;collapsible=1;childLayout=tableLayout;fixedRows=1;rowLines=0;fontStyle=1;align=center;resizeLast=1;html=1;whiteSpace=wrap;fillColor=#d5e8d4;strokeColor=#82b366;" vertex="1" parent="1">
          <mxGeometry x="125" y="1360" width="185" height="180" as="geometry" />
        </mxCell>
        <mxCell id="vnzELrdjj4XrhpKjHz_1-12" value="" style="shape=tableRow;horizontal=0;startSize=0;swimlaneHead=0;swimlaneBody=0;fillColor=none;collapsible=0;dropTarget=0;points=[[0,0.5],[1,0.5]];portConstraint=eastwest;top=0;left=0;right=0;bottom=0;html=1;" vertex="1" parent="vnzELrdjj4XrhpKjHz_1-11">
          <mxGeometry y="30" width="185" height="30" as="geometry" />
        </mxCell>
        <mxCell id="vnzELrdjj4XrhpKjHz_1-13" value="&lt;font style=&quot;font-size: 16px;&quot;&gt;PK&lt;/font&gt;" style="shape=partialRectangle;connectable=0;fillColor=none;top=0;left=0;bottom=0;right=0;fontStyle=1;overflow=hidden;html=1;whiteSpace=wrap;" vertex="1" parent="vnzELrdjj4XrhpKjHz_1-12">
          <mxGeometry width="60" height="30" as="geometry">
            <mxRectangle width="60" height="30" as="alternateBounds" />
          </mxGeometry>
        </mxCell>
        <mxCell id="vnzELrdjj4XrhpKjHz_1-14" value="&lt;font style=&quot;font-size: 16px;&quot;&gt;Email&lt;/font&gt;" style="shape=partialRectangle;connectable=0;fillColor=none;top=0;left=0;bottom=0;right=0;align=left;spacingLeft=6;fontStyle=5;overflow=hidden;html=1;whiteSpace=wrap;" vertex="1" parent="vnzELrdjj4XrhpKjHz_1-12">
          <mxGeometry x="60" width="125" height="30" as="geometry">
            <mxRectangle width="125" height="30" as="alternateBounds" />
          </mxGeometry>
        </mxCell>
        <mxCell id="vnzELrdjj4XrhpKjHz_1-15" value="" style="shape=tableRow;horizontal=0;startSize=0;swimlaneHead=0;swimlaneBody=0;fillColor=none;collapsible=0;dropTarget=0;points=[[0,0.5],[1,0.5]];portConstraint=eastwest;top=0;left=0;right=0;bottom=0;html=1;" vertex="1" parent="vnzELrdjj4XrhpKjHz_1-11">
          <mxGeometry y="60" width="185" height="30" as="geometry" />
        </mxCell>
        <mxCell id="vnzELrdjj4XrhpKjHz_1-16" value="&lt;font size=&quot;1&quot;&gt;&lt;b style=&quot;font-size: 16px;&quot;&gt;UK&lt;/b&gt;&lt;/font&gt;" style="shape=partialRectangle;connectable=0;fillColor=none;top=0;left=0;bottom=0;right=0;editable=1;overflow=hidden;html=1;whiteSpace=wrap;" vertex="1" parent="vnzELrdjj4XrhpKjHz_1-15">
          <mxGeometry width="60" height="30" as="geometry">
            <mxRectangle width="60" height="30" as="alternateBounds" />
          </mxGeometry>
        </mxCell>
        <mxCell id="vnzELrdjj4XrhpKjHz_1-17" value="&lt;font style=&quot;font-size: 16px;&quot;&gt;Nickname&lt;/font&gt;" style="shape=partialRectangle;connectable=0;fillColor=none;top=0;left=0;bottom=0;right=0;align=left;spacingLeft=6;overflow=hidden;html=1;whiteSpace=wrap;" vertex="1" parent="vnzELrdjj4XrhpKjHz_1-15">
          <mxGeometry x="60" width="125" height="30" as="geometry">
            <mxRectangle width="125" height="30" as="alternateBounds" />
          </mxGeometry>
        </mxCell>
        <mxCell id="vnzELrdjj4XrhpKjHz_1-18" value="" style="shape=tableRow;horizontal=0;startSize=0;swimlaneHead=0;swimlaneBody=0;fillColor=none;collapsible=0;dropTarget=0;points=[[0,0.5],[1,0.5]];portConstraint=eastwest;top=0;left=0;right=0;bottom=0;html=1;" vertex="1" parent="vnzELrdjj4XrhpKjHz_1-11">
          <mxGeometry y="90" width="185" height="30" as="geometry" />
        </mxCell>
        <mxCell id="vnzELrdjj4XrhpKjHz_1-19" value="" style="shape=partialRectangle;connectable=0;fillColor=none;top=0;left=0;bottom=0;right=0;editable=1;overflow=hidden;html=1;whiteSpace=wrap;" vertex="1" parent="vnzELrdjj4XrhpKjHz_1-18">
          <mxGeometry width="60" height="30" as="geometry">
            <mxRectangle width="60" height="30" as="alternateBounds" />
          </mxGeometry>
        </mxCell>
        <mxCell id="vnzELrdjj4XrhpKjHz_1-20" value="&lt;font style=&quot;font-size: 16px;&quot;&gt;Nombre&lt;/font&gt;" style="shape=partialRectangle;connectable=0;fillColor=none;top=0;left=0;bottom=0;right=0;align=left;spacingLeft=6;overflow=hidden;html=1;whiteSpace=wrap;" vertex="1" parent="vnzELrdjj4XrhpKjHz_1-18">
          <mxGeometry x="60" width="125" height="30" as="geometry">
            <mxRectangle width="125" height="30" as="alternateBounds" />
          </mxGeometry>
        </mxCell>
        <mxCell id="vnzELrdjj4XrhpKjHz_1-21" value="" style="shape=tableRow;horizontal=0;startSize=0;swimlaneHead=0;swimlaneBody=0;fillColor=none;collapsible=0;dropTarget=0;points=[[0,0.5],[1,0.5]];portConstraint=eastwest;top=0;left=0;right=0;bottom=0;html=1;" vertex="1" parent="vnzELrdjj4XrhpKjHz_1-11">
          <mxGeometry y="120" width="185" height="30" as="geometry" />
        </mxCell>
        <mxCell id="vnzELrdjj4XrhpKjHz_1-22" value="" style="shape=partialRectangle;connectable=0;fillColor=none;top=0;left=0;bottom=0;right=0;editable=1;overflow=hidden;html=1;whiteSpace=wrap;" vertex="1" parent="vnzELrdjj4XrhpKjHz_1-21">
          <mxGeometry width="60" height="30" as="geometry">
            <mxRectangle width="60" height="30" as="alternateBounds" />
          </mxGeometry>
        </mxCell>
        <mxCell id="vnzELrdjj4XrhpKjHz_1-23" value="&lt;font style=&quot;font-size: 16px;&quot;&gt;FechaAlta&lt;/font&gt;" style="shape=partialRectangle;connectable=0;fillColor=none;top=0;left=0;bottom=0;right=0;align=left;spacingLeft=6;overflow=hidden;html=1;whiteSpace=wrap;" vertex="1" parent="vnzELrdjj4XrhpKjHz_1-21">
          <mxGeometry x="60" width="125" height="30" as="geometry">
            <mxRectangle width="125" height="30" as="alternateBounds" />
          </mxGeometry>
        </mxCell>
        <mxCell id="vnzELrdjj4XrhpKjHz_1-24" value="" style="shape=tableRow;horizontal=0;startSize=0;swimlaneHead=0;swimlaneBody=0;fillColor=none;collapsible=0;dropTarget=0;points=[[0,0.5],[1,0.5]];portConstraint=eastwest;top=0;left=0;right=0;bottom=0;html=1;" vertex="1" parent="vnzELrdjj4XrhpKjHz_1-11">
          <mxGeometry y="150" width="185" height="30" as="geometry" />
        </mxCell>
        <mxCell id="vnzELrdjj4XrhpKjHz_1-25" value="&lt;b&gt;N&lt;/b&gt;" style="shape=partialRectangle;connectable=0;fillColor=none;top=0;left=0;bottom=0;right=0;editable=1;overflow=hidden;html=1;whiteSpace=wrap;" vertex="1" parent="vnzELrdjj4XrhpKjHz_1-24">
          <mxGeometry width="60" height="30" as="geometry">
            <mxRectangle width="60" height="30" as="alternateBounds" />
          </mxGeometry>
        </mxCell>
        <mxCell id="vnzELrdjj4XrhpKjHz_1-26" value="&lt;font style=&quot;font-size: 16px;&quot;&gt;FechaHoraBaja&lt;/font&gt;" style="shape=partialRectangle;connectable=0;fillColor=none;top=0;left=0;bottom=0;right=0;align=left;spacingLeft=6;overflow=hidden;html=1;whiteSpace=wrap;" vertex="1" parent="vnzELrdjj4XrhpKjHz_1-24">
          <mxGeometry x="60" width="125" height="30" as="geometry">
            <mxRectangle width="125" height="30" as="alternateBounds" />
          </mxGeometry>
        </mxCell>
        <mxCell id="vnzELrdjj4XrhpKjHz_1-27" value="&lt;font style=&quot;font-size: 18px;&quot;&gt;T_PERMISO&lt;/font&gt;" style="shape=table;startSize=30;container=1;collapsible=1;childLayout=tableLayout;fixedRows=1;rowLines=0;fontStyle=1;align=center;resizeLast=1;html=1;whiteSpace=wrap;fillColor=#f8cecc;strokeColor=#b85450;" vertex="1" parent="1">
          <mxGeometry x="1185" y="1360" width="180" height="120" as="geometry" />
        </mxCell>
        <mxCell id="vnzELrdjj4XrhpKjHz_1-28" value="" style="shape=tableRow;horizontal=0;startSize=0;swimlaneHead=0;swimlaneBody=0;fillColor=none;collapsible=0;dropTarget=0;points=[[0,0.5],[1,0.5]];portConstraint=eastwest;top=0;left=0;right=0;bottom=0;html=1;" vertex="1" parent="vnzELrdjj4XrhpKjHz_1-27">
          <mxGeometry y="30" width="180" height="30" as="geometry" />
        </mxCell>
        <mxCell id="vnzELrdjj4XrhpKjHz_1-29" value="&lt;font style=&quot;font-size: 16px;&quot;&gt;PK&lt;/font&gt;" style="shape=partialRectangle;connectable=0;fillColor=none;top=0;left=0;bottom=0;right=0;fontStyle=1;overflow=hidden;html=1;whiteSpace=wrap;" vertex="1" parent="vnzELrdjj4XrhpKjHz_1-28">
          <mxGeometry width="60" height="30" as="geometry">
            <mxRectangle width="60" height="30" as="alternateBounds" />
          </mxGeometry>
        </mxCell>
        <mxCell id="vnzELrdjj4XrhpKjHz_1-30" value="&lt;font style=&quot;font-size: 16px;&quot;&gt;IdPermiso&lt;/font&gt;" style="shape=partialRectangle;connectable=0;fillColor=none;top=0;left=0;bottom=0;right=0;align=left;spacingLeft=6;fontStyle=5;overflow=hidden;html=1;whiteSpace=wrap;" vertex="1" parent="vnzELrdjj4XrhpKjHz_1-28">
          <mxGeometry x="60" width="120" height="30" as="geometry">
            <mxRectangle width="120" height="30" as="alternateBounds" />
          </mxGeometry>
        </mxCell>
        <mxCell id="vnzELrdjj4XrhpKjHz_1-31" value="" style="shape=tableRow;horizontal=0;startSize=0;swimlaneHead=0;swimlaneBody=0;fillColor=none;collapsible=0;dropTarget=0;points=[[0,0.5],[1,0.5]];portConstraint=eastwest;top=0;left=0;right=0;bottom=0;html=1;" vertex="1" parent="vnzELrdjj4XrhpKjHz_1-27">
          <mxGeometry y="60" width="180" height="30" as="geometry" />
        </mxCell>
        <mxCell id="vnzELrdjj4XrhpKjHz_1-32" value="" style="shape=partialRectangle;connectable=0;fillColor=none;top=0;left=0;bottom=0;right=0;editable=1;overflow=hidden;html=1;whiteSpace=wrap;" vertex="1" parent="vnzELrdjj4XrhpKjHz_1-31">
          <mxGeometry width="60" height="30" as="geometry">
            <mxRectangle width="60" height="30" as="alternateBounds" />
          </mxGeometry>
        </mxCell>
        <mxCell id="vnzELrdjj4XrhpKjHz_1-33" value="&lt;font style=&quot;font-size: 16px;&quot;&gt;Nombre&lt;/font&gt;" style="shape=partialRectangle;connectable=0;fillColor=none;top=0;left=0;bottom=0;right=0;align=left;spacingLeft=6;overflow=hidden;html=1;whiteSpace=wrap;" vertex="1" parent="vnzELrdjj4XrhpKjHz_1-31">
          <mxGeometry x="60" width="120" height="30" as="geometry">
            <mxRectangle width="120" height="30" as="alternateBounds" />
          </mxGeometry>
        </mxCell>
        <mxCell id="vnzELrdjj4XrhpKjHz_1-34" value="" style="shape=tableRow;horizontal=0;startSize=0;swimlaneHead=0;swimlaneBody=0;fillColor=none;collapsible=0;dropTarget=0;points=[[0,0.5],[1,0.5]];portConstraint=eastwest;top=0;left=0;right=0;bottom=0;html=1;" vertex="1" parent="vnzELrdjj4XrhpKjHz_1-27">
          <mxGeometry y="90" width="180" height="30" as="geometry" />
        </mxCell>
        <mxCell id="vnzELrdjj4XrhpKjHz_1-35" value="" style="shape=partialRectangle;connectable=0;fillColor=none;top=0;left=0;bottom=0;right=0;editable=1;overflow=hidden;html=1;whiteSpace=wrap;" vertex="1" parent="vnzELrdjj4XrhpKjHz_1-34">
          <mxGeometry width="60" height="30" as="geometry">
            <mxRectangle width="60" height="30" as="alternateBounds" />
          </mxGeometry>
        </mxCell>
        <mxCell id="vnzELrdjj4XrhpKjHz_1-36" value="&lt;font style=&quot;font-size: 16px;&quot;&gt;Descripcion&lt;/font&gt;" style="shape=partialRectangle;connectable=0;fillColor=none;top=0;left=0;bottom=0;right=0;align=left;spacingLeft=6;overflow=hidden;html=1;whiteSpace=wrap;" vertex="1" parent="vnzELrdjj4XrhpKjHz_1-34">
          <mxGeometry x="60" width="120" height="30" as="geometry">
            <mxRectangle width="120" height="30" as="alternateBounds" />
          </mxGeometry>
        </mxCell>
        <mxCell id="vnzELrdjj4XrhpKjHz_1-37" value="&lt;font style=&quot;font-size: 16px;&quot;&gt;T_USUARIO_ROL&lt;/font&gt;" style="shape=table;startSize=30;container=1;collapsible=1;childLayout=tableLayout;fixedRows=1;rowLines=0;fontStyle=1;align=center;resizeLast=1;html=1;whiteSpace=wrap;fillColor=#fff2cc;strokeColor=#d6b656;" vertex="1" parent="1">
          <mxGeometry x="385" y="1480" width="200" height="90" as="geometry" />
        </mxCell>
        <mxCell id="vnzELrdjj4XrhpKjHz_1-38" value="" style="shape=tableRow;horizontal=0;startSize=0;swimlaneHead=0;swimlaneBody=0;fillColor=none;collapsible=0;dropTarget=0;points=[[0,0.5],[1,0.5]];portConstraint=eastwest;top=0;left=0;right=0;bottom=0;html=1;" vertex="1" parent="vnzELrdjj4XrhpKjHz_1-37">
          <mxGeometry y="30" width="200" height="30" as="geometry" />
        </mxCell>
        <mxCell id="vnzELrdjj4XrhpKjHz_1-39" value="&lt;font style=&quot;font-size: 16px;&quot;&gt;PK,FK1&lt;/font&gt;" style="shape=partialRectangle;connectable=0;fillColor=none;top=0;left=0;bottom=0;right=0;fontStyle=1;overflow=hidden;html=1;whiteSpace=wrap;" vertex="1" parent="vnzELrdjj4XrhpKjHz_1-38">
          <mxGeometry width="60" height="30" as="geometry">
            <mxRectangle width="60" height="30" as="alternateBounds" />
          </mxGeometry>
        </mxCell>
        <mxCell id="vnzELrdjj4XrhpKjHz_1-40" value="&lt;font style=&quot;font-size: 16px;&quot;&gt;Email&lt;/font&gt;" style="shape=partialRectangle;connectable=0;fillColor=none;top=0;left=0;bottom=0;right=0;align=left;spacingLeft=6;fontStyle=5;overflow=hidden;html=1;whiteSpace=wrap;" vertex="1" parent="vnzELrdjj4XrhpKjHz_1-38">
          <mxGeometry x="60" width="140" height="30" as="geometry">
            <mxRectangle width="140" height="30" as="alternateBounds" />
          </mxGeometry>
        </mxCell>
        <mxCell id="vnzELrdjj4XrhpKjHz_1-41" value="" style="shape=tableRow;horizontal=0;startSize=0;swimlaneHead=0;swimlaneBody=0;fillColor=none;collapsible=0;dropTarget=0;points=[[0,0.5],[1,0.5]];portConstraint=eastwest;top=0;left=0;right=0;bottom=1;html=1;" vertex="1" parent="vnzELrdjj4XrhpKjHz_1-37">
          <mxGeometry y="60" width="200" height="30" as="geometry" />
        </mxCell>
        <mxCell id="vnzELrdjj4XrhpKjHz_1-42" value="&lt;font style=&quot;font-size: 16px;&quot;&gt;PK,FK2&lt;/font&gt;" style="shape=partialRectangle;connectable=0;fillColor=none;top=0;left=0;bottom=0;right=0;fontStyle=1;overflow=hidden;html=1;whiteSpace=wrap;" vertex="1" parent="vnzELrdjj4XrhpKjHz_1-41">
          <mxGeometry width="60" height="30" as="geometry">
            <mxRectangle width="60" height="30" as="alternateBounds" />
          </mxGeometry>
        </mxCell>
        <mxCell id="vnzELrdjj4XrhpKjHz_1-43" value="&lt;font style=&quot;font-size: 16px;&quot;&gt;CodigoRol&lt;/font&gt;" style="shape=partialRectangle;connectable=0;fillColor=none;top=0;left=0;bottom=0;right=0;align=left;spacingLeft=6;fontStyle=5;overflow=hidden;html=1;whiteSpace=wrap;" vertex="1" parent="vnzELrdjj4XrhpKjHz_1-41">
          <mxGeometry x="60" width="140" height="30" as="geometry">
            <mxRectangle width="140" height="30" as="alternateBounds" />
          </mxGeometry>
        </mxCell>
        <mxCell id="vnzELrdjj4XrhpKjHz_1-44" value="&lt;font style=&quot;font-size: 18px;&quot;&gt;T_ROL_PERMISO&lt;/font&gt;" style="shape=table;startSize=30;container=1;collapsible=1;childLayout=tableLayout;fixedRows=1;rowLines=0;fontStyle=1;align=center;resizeLast=1;html=1;whiteSpace=wrap;fillColor=#fff2cc;strokeColor=#d6b656;" vertex="1" parent="1">
          <mxGeometry x="915" y="1480" width="200" height="90" as="geometry" />
        </mxCell>
        <mxCell id="vnzELrdjj4XrhpKjHz_1-45" value="" style="shape=tableRow;horizontal=0;startSize=0;swimlaneHead=0;swimlaneBody=0;fillColor=none;collapsible=0;dropTarget=0;points=[[0,0.5],[1,0.5]];portConstraint=eastwest;top=0;left=0;right=0;bottom=0;html=1;" vertex="1" parent="vnzELrdjj4XrhpKjHz_1-44">
          <mxGeometry y="30" width="200" height="30" as="geometry" />
        </mxCell>
        <mxCell id="vnzELrdjj4XrhpKjHz_1-46" value="&lt;font style=&quot;font-size: 16px;&quot;&gt;PK,FK1&lt;/font&gt;" style="shape=partialRectangle;connectable=0;fillColor=none;top=0;left=0;bottom=0;right=0;fontStyle=1;overflow=hidden;html=1;whiteSpace=wrap;" vertex="1" parent="vnzELrdjj4XrhpKjHz_1-45">
          <mxGeometry width="60" height="30" as="geometry">
            <mxRectangle width="60" height="30" as="alternateBounds" />
          </mxGeometry>
        </mxCell>
        <mxCell id="vnzELrdjj4XrhpKjHz_1-47" value="&lt;font style=&quot;font-size: 16px;&quot;&gt;IdPermiso&lt;/font&gt;" style="shape=partialRectangle;connectable=0;fillColor=none;top=0;left=0;bottom=0;right=0;align=left;spacingLeft=6;fontStyle=5;overflow=hidden;html=1;whiteSpace=wrap;" vertex="1" parent="vnzELrdjj4XrhpKjHz_1-45">
          <mxGeometry x="60" width="140" height="30" as="geometry">
            <mxRectangle width="140" height="30" as="alternateBounds" />
          </mxGeometry>
        </mxCell>
        <mxCell id="vnzELrdjj4XrhpKjHz_1-48" value="" style="shape=tableRow;horizontal=0;startSize=0;swimlaneHead=0;swimlaneBody=0;fillColor=none;collapsible=0;dropTarget=0;points=[[0,0.5],[1,0.5]];portConstraint=eastwest;top=0;left=0;right=0;bottom=1;html=1;" vertex="1" parent="vnzELrdjj4XrhpKjHz_1-44">
          <mxGeometry y="60" width="200" height="30" as="geometry" />
        </mxCell>
        <mxCell id="vnzELrdjj4XrhpKjHz_1-49" value="&lt;font style=&quot;font-size: 16px;&quot;&gt;PK,FK2&lt;/font&gt;" style="shape=partialRectangle;connectable=0;fillColor=none;top=0;left=0;bottom=0;right=0;fontStyle=1;overflow=hidden;html=1;whiteSpace=wrap;" vertex="1" parent="vnzELrdjj4XrhpKjHz_1-48">
          <mxGeometry width="60" height="30" as="geometry">
            <mxRectangle width="60" height="30" as="alternateBounds" />
          </mxGeometry>
        </mxCell>
        <mxCell id="vnzELrdjj4XrhpKjHz_1-50" value="&lt;font style=&quot;font-size: 16px;&quot;&gt;CodigoRol&lt;/font&gt;" style="shape=partialRectangle;connectable=0;fillColor=none;top=0;left=0;bottom=0;right=0;align=left;spacingLeft=6;fontStyle=5;overflow=hidden;html=1;whiteSpace=wrap;" vertex="1" parent="vnzELrdjj4XrhpKjHz_1-48">
          <mxGeometry x="60" width="140" height="30" as="geometry">
            <mxRectangle width="140" height="30" as="alternateBounds" />
          </mxGeometry>
        </mxCell>
        <mxCell id="vnzELrdjj4XrhpKjHz_1-51" value="" style="endArrow=ERone;html=1;rounded=0;exitX=0;exitY=0.5;exitDx=0;exitDy=0;startArrow=ERoneToMany;startFill=0;endFill=0;entryX=1;entryY=0.5;entryDx=0;entryDy=0;" edge="1" parent="1" source="vnzELrdjj4XrhpKjHz_1-38" target="vnzELrdjj4XrhpKjHz_1-12">
          <mxGeometry relative="1" as="geometry">
            <mxPoint x="625" y="1430" as="sourcePoint" />
            <mxPoint x="350" y="1370" as="targetPoint" />
            <Array as="points">
              <mxPoint x="365" y="1525" />
              <mxPoint x="335" y="1405" />
            </Array>
          </mxGeometry>
        </mxCell>
        <mxCell id="vnzELrdjj4XrhpKjHz_1-52" value="" style="endArrow=ERoneToMany;html=1;rounded=0;startArrow=ERone;startFill=0;endFill=0;entryX=1;entryY=0.5;entryDx=0;entryDy=0;exitX=0;exitY=0.5;exitDx=0;exitDy=0;" edge="1" parent="1" source="vnzELrdjj4XrhpKjHz_1-2" target="vnzELrdjj4XrhpKjHz_1-41">
          <mxGeometry relative="1" as="geometry">
            <mxPoint x="655" y="1410" as="sourcePoint" />
            <mxPoint x="545" y="1430" as="targetPoint" />
            <Array as="points">
              <mxPoint x="635" y="1405" />
              <mxPoint x="615" y="1555" />
            </Array>
          </mxGeometry>
        </mxCell>
        <mxCell id="vnzELrdjj4XrhpKjHz_1-53" value="" style="endArrow=ERoneToMany;html=1;rounded=0;startArrow=ERone;startFill=0;endFill=0;exitX=0;exitY=0.5;exitDx=0;exitDy=0;entryX=1;entryY=0.5;entryDx=0;entryDy=0;" edge="1" parent="1" source="vnzELrdjj4XrhpKjHz_1-28" target="vnzELrdjj4XrhpKjHz_1-45">
          <mxGeometry relative="1" as="geometry">
            <mxPoint x="695" y="1590" as="sourcePoint" />
            <mxPoint x="855" y="1590" as="targetPoint" />
            <Array as="points">
              <mxPoint x="1155" y="1405" />
              <mxPoint x="1135" y="1525" />
            </Array>
          </mxGeometry>
        </mxCell>
        <mxCell id="vnzELrdjj4XrhpKjHz_1-54" value="" style="endArrow=ERoneToMany;html=1;rounded=0;startArrow=ERone;startFill=0;endFill=0;exitX=1;exitY=0.5;exitDx=0;exitDy=0;entryX=0;entryY=0.5;entryDx=0;entryDy=0;" edge="1" parent="1" source="vnzELrdjj4XrhpKjHz_1-2" target="vnzELrdjj4XrhpKjHz_1-48">
          <mxGeometry relative="1" as="geometry">
            <mxPoint x="705" y="1600" as="sourcePoint" />
            <mxPoint x="895" y="1525" as="targetPoint" />
            <Array as="points">
              <mxPoint x="865" y="1405" />
              <mxPoint x="885" y="1555" />
            </Array>
          </mxGeometry>
        </mxCell>
        <mxCell id="vnzELrdjj4XrhpKjHz_1-55" value="&lt;font style=&quot;font-size: 18px;&quot;&gt;T_PERSONAL&lt;/font&gt;" style="shape=table;startSize=30;container=1;collapsible=1;childLayout=tableLayout;fixedRows=1;rowLines=0;fontStyle=1;align=center;resizeLast=1;html=1;whiteSpace=wrap;fillColor=#ffe6cc;strokeColor=#d79b00;" vertex="1" parent="1">
          <mxGeometry x="120" y="1680" width="180" height="150" as="geometry" />
        </mxCell>
        <mxCell id="vnzELrdjj4XrhpKjHz_1-56" value="" style="shape=tableRow;horizontal=0;startSize=0;swimlaneHead=0;swimlaneBody=0;fillColor=none;collapsible=0;dropTarget=0;points=[[0,0.5],[1,0.5]];portConstraint=eastwest;top=0;left=0;right=0;bottom=1;html=1;" vertex="1" parent="vnzELrdjj4XrhpKjHz_1-55">
          <mxGeometry y="30" width="180" height="30" as="geometry" />
        </mxCell>
        <mxCell id="vnzELrdjj4XrhpKjHz_1-57" value="&lt;font style=&quot;font-size: 16px;&quot;&gt;PK&lt;/font&gt;" style="shape=partialRectangle;connectable=0;fillColor=none;top=0;left=0;bottom=0;right=0;fontStyle=1;overflow=hidden;html=1;whiteSpace=wrap;" vertex="1" parent="vnzELrdjj4XrhpKjHz_1-56">
          <mxGeometry width="60" height="30" as="geometry">
            <mxRectangle width="60" height="30" as="alternateBounds" />
          </mxGeometry>
        </mxCell>
        <mxCell id="vnzELrdjj4XrhpKjHz_1-58" value="&lt;font style=&quot;font-size: 16px;&quot;&gt;DNI&lt;/font&gt;" style="shape=partialRectangle;connectable=0;fillColor=none;top=0;left=0;bottom=0;right=0;align=left;spacingLeft=6;fontStyle=5;overflow=hidden;html=1;whiteSpace=wrap;" vertex="1" parent="vnzELrdjj4XrhpKjHz_1-56">
          <mxGeometry x="60" width="120" height="30" as="geometry">
            <mxRectangle width="120" height="30" as="alternateBounds" />
          </mxGeometry>
        </mxCell>
        <mxCell id="vnzELrdjj4XrhpKjHz_1-59" value="" style="shape=tableRow;horizontal=0;startSize=0;swimlaneHead=0;swimlaneBody=0;fillColor=none;collapsible=0;dropTarget=0;points=[[0,0.5],[1,0.5]];portConstraint=eastwest;top=0;left=0;right=0;bottom=0;html=1;" vertex="1" parent="vnzELrdjj4XrhpKjHz_1-55">
          <mxGeometry y="60" width="180" height="30" as="geometry" />
        </mxCell>
        <mxCell id="vnzELrdjj4XrhpKjHz_1-60" value="" style="shape=partialRectangle;connectable=0;fillColor=none;top=0;left=0;bottom=0;right=0;editable=1;overflow=hidden;html=1;whiteSpace=wrap;" vertex="1" parent="vnzELrdjj4XrhpKjHz_1-59">
          <mxGeometry width="60" height="30" as="geometry">
            <mxRectangle width="60" height="30" as="alternateBounds" />
          </mxGeometry>
        </mxCell>
        <mxCell id="vnzELrdjj4XrhpKjHz_1-61" value="&lt;font style=&quot;font-size: 16px;&quot;&gt;Nombre&lt;/font&gt;" style="shape=partialRectangle;connectable=0;fillColor=none;top=0;left=0;bottom=0;right=0;align=left;spacingLeft=6;overflow=hidden;html=1;whiteSpace=wrap;" vertex="1" parent="vnzELrdjj4XrhpKjHz_1-59">
          <mxGeometry x="60" width="120" height="30" as="geometry">
            <mxRectangle width="120" height="30" as="alternateBounds" />
          </mxGeometry>
        </mxCell>
        <mxCell id="vnzELrdjj4XrhpKjHz_1-62" value="" style="shape=tableRow;horizontal=0;startSize=0;swimlaneHead=0;swimlaneBody=0;fillColor=none;collapsible=0;dropTarget=0;points=[[0,0.5],[1,0.5]];portConstraint=eastwest;top=0;left=0;right=0;bottom=0;html=1;" vertex="1" parent="vnzELrdjj4XrhpKjHz_1-55">
          <mxGeometry y="90" width="180" height="30" as="geometry" />
        </mxCell>
        <mxCell id="vnzELrdjj4XrhpKjHz_1-63" value="" style="shape=partialRectangle;connectable=0;fillColor=none;top=0;left=0;bottom=0;right=0;editable=1;overflow=hidden;html=1;whiteSpace=wrap;" vertex="1" parent="vnzELrdjj4XrhpKjHz_1-62">
          <mxGeometry width="60" height="30" as="geometry">
            <mxRectangle width="60" height="30" as="alternateBounds" />
          </mxGeometry>
        </mxCell>
        <mxCell id="vnzELrdjj4XrhpKjHz_1-64" value="&lt;font style=&quot;font-size: 16px;&quot;&gt;Apellido1&lt;/font&gt;" style="shape=partialRectangle;connectable=0;fillColor=none;top=0;left=0;bottom=0;right=0;align=left;spacingLeft=6;overflow=hidden;html=1;whiteSpace=wrap;" vertex="1" parent="vnzELrdjj4XrhpKjHz_1-62">
          <mxGeometry x="60" width="120" height="30" as="geometry">
            <mxRectangle width="120" height="30" as="alternateBounds" />
          </mxGeometry>
        </mxCell>
        <mxCell id="vnzELrdjj4XrhpKjHz_1-65" value="" style="shape=tableRow;horizontal=0;startSize=0;swimlaneHead=0;swimlaneBody=0;fillColor=none;collapsible=0;dropTarget=0;points=[[0,0.5],[1,0.5]];portConstraint=eastwest;top=0;left=0;right=0;bottom=0;html=1;" vertex="1" parent="vnzELrdjj4XrhpKjHz_1-55">
          <mxGeometry y="120" width="180" height="30" as="geometry" />
        </mxCell>
        <mxCell id="vnzELrdjj4XrhpKjHz_1-66" value="&lt;b&gt;&lt;font style=&quot;font-size: 16px;&quot;&gt;N&lt;/font&gt;&lt;/b&gt;" style="shape=partialRectangle;connectable=0;fillColor=none;top=0;left=0;bottom=0;right=0;editable=1;overflow=hidden;html=1;whiteSpace=wrap;" vertex="1" parent="vnzELrdjj4XrhpKjHz_1-65">
          <mxGeometry width="60" height="30" as="geometry">
            <mxRectangle width="60" height="30" as="alternateBounds" />
          </mxGeometry>
        </mxCell>
        <mxCell id="vnzELrdjj4XrhpKjHz_1-67" value="&lt;font style=&quot;font-size: 16px;&quot;&gt;Apellido2&lt;/font&gt;" style="shape=partialRectangle;connectable=0;fillColor=none;top=0;left=0;bottom=0;right=0;align=left;spacingLeft=6;overflow=hidden;html=1;whiteSpace=wrap;" vertex="1" parent="vnzELrdjj4XrhpKjHz_1-65">
          <mxGeometry x="60" width="120" height="30" as="geometry">
            <mxRectangle width="120" height="30" as="alternateBounds" />
          </mxGeometry>
        </mxCell>
        <mxCell id="vnzELrdjj4XrhpKjHz_1-68" value="&lt;font style=&quot;font-size: 16px;&quot;&gt;T_PERSONAL_USUARIO&lt;/font&gt;" style="shape=table;startSize=30;container=1;collapsible=1;childLayout=tableLayout;fixedRows=1;rowLines=0;fontStyle=1;align=center;resizeLast=1;html=1;whiteSpace=wrap;fillColor=#dae8fc;strokeColor=#6c8ebf;" vertex="1" parent="1">
          <mxGeometry x="-160" y="1540" width="200" height="90" as="geometry" />
        </mxCell>
        <mxCell id="vnzELrdjj4XrhpKjHz_1-69" value="" style="shape=tableRow;horizontal=0;startSize=0;swimlaneHead=0;swimlaneBody=0;fillColor=none;collapsible=0;dropTarget=0;points=[[0,0.5],[1,0.5]];portConstraint=eastwest;top=0;left=0;right=0;bottom=0;html=1;" vertex="1" parent="vnzELrdjj4XrhpKjHz_1-68">
          <mxGeometry y="30" width="200" height="30" as="geometry" />
        </mxCell>
        <mxCell id="vnzELrdjj4XrhpKjHz_1-70" value="&lt;font style=&quot;font-size: 16px;&quot;&gt;PK,FK1&lt;/font&gt;" style="shape=partialRectangle;connectable=0;fillColor=none;top=0;left=0;bottom=0;right=0;fontStyle=1;overflow=hidden;html=1;whiteSpace=wrap;" vertex="1" parent="vnzELrdjj4XrhpKjHz_1-69">
          <mxGeometry width="60" height="30" as="geometry">
            <mxRectangle width="60" height="30" as="alternateBounds" />
          </mxGeometry>
        </mxCell>
        <mxCell id="vnzELrdjj4XrhpKjHz_1-71" value="&lt;font style=&quot;font-size: 16px;&quot;&gt;Email&lt;/font&gt;" style="shape=partialRectangle;connectable=0;fillColor=none;top=0;left=0;bottom=0;right=0;align=left;spacingLeft=6;fontStyle=5;overflow=hidden;html=1;whiteSpace=wrap;" vertex="1" parent="vnzELrdjj4XrhpKjHz_1-69">
          <mxGeometry x="60" width="140" height="30" as="geometry">
            <mxRectangle width="140" height="30" as="alternateBounds" />
          </mxGeometry>
        </mxCell>
        <mxCell id="vnzELrdjj4XrhpKjHz_1-72" value="" style="shape=tableRow;horizontal=0;startSize=0;swimlaneHead=0;swimlaneBody=0;fillColor=none;collapsible=0;dropTarget=0;points=[[0,0.5],[1,0.5]];portConstraint=eastwest;top=0;left=0;right=0;bottom=1;html=1;" vertex="1" parent="vnzELrdjj4XrhpKjHz_1-68">
          <mxGeometry y="60" width="200" height="30" as="geometry" />
        </mxCell>
        <mxCell id="vnzELrdjj4XrhpKjHz_1-73" value="&lt;font style=&quot;font-size: 16px;&quot;&gt;PK,FK2&lt;/font&gt;" style="shape=partialRectangle;connectable=0;fillColor=none;top=0;left=0;bottom=0;right=0;fontStyle=1;overflow=hidden;html=1;whiteSpace=wrap;" vertex="1" parent="vnzELrdjj4XrhpKjHz_1-72">
          <mxGeometry width="60" height="30" as="geometry">
            <mxRectangle width="60" height="30" as="alternateBounds" />
          </mxGeometry>
        </mxCell>
        <mxCell id="vnzELrdjj4XrhpKjHz_1-74" value="&lt;font style=&quot;font-size: 16px;&quot;&gt;DNI&lt;/font&gt;" style="shape=partialRectangle;connectable=0;fillColor=none;top=0;left=0;bottom=0;right=0;align=left;spacingLeft=6;fontStyle=5;overflow=hidden;html=1;whiteSpace=wrap;" vertex="1" parent="vnzELrdjj4XrhpKjHz_1-72">
          <mxGeometry x="60" width="140" height="30" as="geometry">
            <mxRectangle width="140" height="30" as="alternateBounds" />
          </mxGeometry>
        </mxCell>
        <mxCell id="vnzELrdjj4XrhpKjHz_1-75" value="&lt;font style=&quot;font-size: 18px;&quot;&gt;T_GESTOR&lt;/font&gt;" style="shape=table;startSize=30;container=1;collapsible=1;childLayout=tableLayout;fixedRows=1;rowLines=0;fontStyle=1;align=center;resizeLast=1;html=1;whiteSpace=wrap;fillColor=#ffe6cc;strokeColor=#d79b00;" vertex="1" parent="1">
          <mxGeometry x="90" y="1920" width="180" height="60" as="geometry" />
        </mxCell>
        <mxCell id="vnzELrdjj4XrhpKjHz_1-76" value="" style="shape=tableRow;horizontal=0;startSize=0;swimlaneHead=0;swimlaneBody=0;fillColor=none;collapsible=0;dropTarget=0;points=[[0,0.5],[1,0.5]];portConstraint=eastwest;top=0;left=0;right=0;bottom=0;html=1;" vertex="1" parent="vnzELrdjj4XrhpKjHz_1-75">
          <mxGeometry y="30" width="180" height="30" as="geometry" />
        </mxCell>
        <mxCell id="vnzELrdjj4XrhpKjHz_1-77" value="&lt;font style=&quot;font-size: 16px;&quot;&gt;PK, FK&lt;/font&gt;" style="shape=partialRectangle;connectable=0;fillColor=none;top=0;left=0;bottom=0;right=0;fontStyle=1;overflow=hidden;html=1;whiteSpace=wrap;" vertex="1" parent="vnzELrdjj4XrhpKjHz_1-76">
          <mxGeometry width="60" height="30" as="geometry">
            <mxRectangle width="60" height="30" as="alternateBounds" />
          </mxGeometry>
        </mxCell>
        <mxCell id="vnzELrdjj4XrhpKjHz_1-78" value="&lt;font style=&quot;font-size: 16px;&quot;&gt;DNI&lt;/font&gt;" style="shape=partialRectangle;connectable=0;fillColor=none;top=0;left=0;bottom=0;right=0;align=left;spacingLeft=6;fontStyle=5;overflow=hidden;html=1;whiteSpace=wrap;" vertex="1" parent="vnzELrdjj4XrhpKjHz_1-76">
          <mxGeometry x="60" width="120" height="30" as="geometry">
            <mxRectangle width="120" height="30" as="alternateBounds" />
          </mxGeometry>
        </mxCell>
        <mxCell id="vnzELrdjj4XrhpKjHz_1-79" value="&lt;font style=&quot;font-size: 18px;&quot;&gt;T_ALUMNO&lt;/font&gt;" style="shape=table;startSize=30;container=1;collapsible=1;childLayout=tableLayout;fixedRows=1;rowLines=0;fontStyle=1;align=center;resizeLast=1;html=1;whiteSpace=wrap;fillColor=#ffe6cc;strokeColor=#d79b00;" vertex="1" parent="1">
          <mxGeometry x="-200" y="1920" width="200" height="120" as="geometry" />
        </mxCell>
        <mxCell id="vnzELrdjj4XrhpKjHz_1-80" value="" style="shape=tableRow;horizontal=0;startSize=0;swimlaneHead=0;swimlaneBody=0;fillColor=none;collapsible=0;dropTarget=0;points=[[0,0.5],[1,0.5]];portConstraint=eastwest;top=0;left=0;right=0;bottom=0;html=1;" vertex="1" parent="vnzELrdjj4XrhpKjHz_1-79">
          <mxGeometry y="30" width="200" height="30" as="geometry" />
        </mxCell>
        <mxCell id="vnzELrdjj4XrhpKjHz_1-81" value="&lt;font style=&quot;font-size: 16px;&quot;&gt;PK&lt;/font&gt;" style="shape=partialRectangle;connectable=0;fillColor=none;top=0;left=0;bottom=0;right=0;fontStyle=1;overflow=hidden;html=1;whiteSpace=wrap;" vertex="1" parent="vnzELrdjj4XrhpKjHz_1-80">
          <mxGeometry width="60" height="30" as="geometry">
            <mxRectangle width="60" height="30" as="alternateBounds" />
          </mxGeometry>
        </mxCell>
        <mxCell id="vnzELrdjj4XrhpKjHz_1-82" value="&lt;font style=&quot;font-size: 16px;&quot;&gt;NumeroAlumno&lt;/font&gt;" style="shape=partialRectangle;connectable=0;fillColor=none;top=0;left=0;bottom=0;right=0;align=left;spacingLeft=6;fontStyle=5;overflow=hidden;html=1;whiteSpace=wrap;" vertex="1" parent="vnzELrdjj4XrhpKjHz_1-80">
          <mxGeometry x="60" width="140" height="30" as="geometry">
            <mxRectangle width="140" height="30" as="alternateBounds" />
          </mxGeometry>
        </mxCell>
        <mxCell id="vnzELrdjj4XrhpKjHz_1-83" value="" style="shape=tableRow;horizontal=0;startSize=0;swimlaneHead=0;swimlaneBody=0;fillColor=none;collapsible=0;dropTarget=0;points=[[0,0.5],[1,0.5]];portConstraint=eastwest;top=0;left=0;right=0;bottom=0;html=1;" vertex="1" parent="vnzELrdjj4XrhpKjHz_1-79">
          <mxGeometry y="60" width="200" height="30" as="geometry" />
        </mxCell>
        <mxCell id="vnzELrdjj4XrhpKjHz_1-84" value="" style="shape=partialRectangle;connectable=0;fillColor=none;top=0;left=0;bottom=0;right=0;editable=1;overflow=hidden;html=1;whiteSpace=wrap;" vertex="1" parent="vnzELrdjj4XrhpKjHz_1-83">
          <mxGeometry width="60" height="30" as="geometry">
            <mxRectangle width="60" height="30" as="alternateBounds" />
          </mxGeometry>
        </mxCell>
        <mxCell id="vnzELrdjj4XrhpKjHz_1-85" value="&lt;font style=&quot;font-size: 16px;&quot;&gt;FechaNacimiento&lt;/font&gt;" style="shape=partialRectangle;connectable=0;fillColor=none;top=0;left=0;bottom=0;right=0;align=left;spacingLeft=6;overflow=hidden;html=1;whiteSpace=wrap;" vertex="1" parent="vnzELrdjj4XrhpKjHz_1-83">
          <mxGeometry x="60" width="140" height="30" as="geometry">
            <mxRectangle width="140" height="30" as="alternateBounds" />
          </mxGeometry>
        </mxCell>
        <mxCell id="vnzELrdjj4XrhpKjHz_1-86" value="" style="shape=tableRow;horizontal=0;startSize=0;swimlaneHead=0;swimlaneBody=0;fillColor=none;collapsible=0;dropTarget=0;points=[[0,0.5],[1,0.5]];portConstraint=eastwest;top=0;left=0;right=0;bottom=0;html=1;" vertex="1" parent="vnzELrdjj4XrhpKjHz_1-79">
          <mxGeometry y="90" width="200" height="30" as="geometry" />
        </mxCell>
        <mxCell id="vnzELrdjj4XrhpKjHz_1-87" value="&lt;font size=&quot;1&quot;&gt;&lt;b style=&quot;font-size: 16px;&quot;&gt;FK, UK&lt;/b&gt;&lt;/font&gt;" style="shape=partialRectangle;connectable=0;fillColor=none;top=0;left=0;bottom=0;right=0;editable=1;overflow=hidden;html=1;whiteSpace=wrap;" vertex="1" parent="vnzELrdjj4XrhpKjHz_1-86">
          <mxGeometry width="60" height="30" as="geometry">
            <mxRectangle width="60" height="30" as="alternateBounds" />
          </mxGeometry>
        </mxCell>
        <mxCell id="vnzELrdjj4XrhpKjHz_1-88" value="&lt;font style=&quot;font-size: 16px;&quot;&gt;DNI&lt;/font&gt;" style="shape=partialRectangle;connectable=0;fillColor=none;top=0;left=0;bottom=0;right=0;align=left;spacingLeft=6;overflow=hidden;html=1;whiteSpace=wrap;" vertex="1" parent="vnzELrdjj4XrhpKjHz_1-86">
          <mxGeometry x="60" width="140" height="30" as="geometry">
            <mxRectangle width="140" height="30" as="alternateBounds" />
          </mxGeometry>
        </mxCell>
        <mxCell id="vnzELrdjj4XrhpKjHz_1-89" value="&lt;font style=&quot;font-size: 18px;&quot;&gt;T_PROFESOR&lt;/font&gt;" style="shape=table;startSize=30;container=1;collapsible=1;childLayout=tableLayout;fixedRows=1;rowLines=0;fontStyle=1;align=center;resizeLast=1;html=1;whiteSpace=wrap;fillColor=#ffe6cc;strokeColor=#d79b00;" vertex="1" parent="1">
          <mxGeometry x="360" y="1920" width="180" height="90" as="geometry" />
        </mxCell>
        <mxCell id="vnzELrdjj4XrhpKjHz_1-90" value="" style="shape=tableRow;horizontal=0;startSize=0;swimlaneHead=0;swimlaneBody=0;fillColor=none;collapsible=0;dropTarget=0;points=[[0,0.5],[1,0.5]];portConstraint=eastwest;top=0;left=0;right=0;bottom=0;html=1;" vertex="1" parent="vnzELrdjj4XrhpKjHz_1-89">
          <mxGeometry y="30" width="180" height="30" as="geometry" />
        </mxCell>
        <mxCell id="vnzELrdjj4XrhpKjHz_1-91" value="&lt;font style=&quot;font-size: 16px;&quot;&gt;PK&lt;/font&gt;" style="shape=partialRectangle;connectable=0;fillColor=none;top=0;left=0;bottom=0;right=0;fontStyle=1;overflow=hidden;html=1;whiteSpace=wrap;" vertex="1" parent="vnzELrdjj4XrhpKjHz_1-90">
          <mxGeometry width="60" height="30" as="geometry">
            <mxRectangle width="60" height="30" as="alternateBounds" />
          </mxGeometry>
        </mxCell>
        <mxCell id="vnzELrdjj4XrhpKjHz_1-92" value="&lt;font style=&quot;font-size: 16px;&quot;&gt;Codigo&lt;/font&gt;" style="shape=partialRectangle;connectable=0;fillColor=none;top=0;left=0;bottom=0;right=0;align=left;spacingLeft=6;fontStyle=5;overflow=hidden;html=1;whiteSpace=wrap;" vertex="1" parent="vnzELrdjj4XrhpKjHz_1-90">
          <mxGeometry x="60" width="120" height="30" as="geometry">
            <mxRectangle width="120" height="30" as="alternateBounds" />
          </mxGeometry>
        </mxCell>
        <mxCell id="vnzELrdjj4XrhpKjHz_1-93" value="" style="shape=tableRow;horizontal=0;startSize=0;swimlaneHead=0;swimlaneBody=0;fillColor=none;collapsible=0;dropTarget=0;points=[[0,0.5],[1,0.5]];portConstraint=eastwest;top=0;left=0;right=0;bottom=0;html=1;" vertex="1" parent="vnzELrdjj4XrhpKjHz_1-89">
          <mxGeometry y="60" width="180" height="30" as="geometry" />
        </mxCell>
        <mxCell id="vnzELrdjj4XrhpKjHz_1-94" value="&lt;font size=&quot;1&quot;&gt;&lt;b style=&quot;font-size: 16px;&quot;&gt;FK, UK&lt;/b&gt;&lt;/font&gt;" style="shape=partialRectangle;connectable=0;fillColor=none;top=0;left=0;bottom=0;right=0;editable=1;overflow=hidden;html=1;whiteSpace=wrap;" vertex="1" parent="vnzELrdjj4XrhpKjHz_1-93">
          <mxGeometry width="60" height="30" as="geometry">
            <mxRectangle width="60" height="30" as="alternateBounds" />
          </mxGeometry>
        </mxCell>
        <mxCell id="vnzELrdjj4XrhpKjHz_1-95" value="&lt;font style=&quot;font-size: 16px;&quot;&gt;DNI&lt;/font&gt;" style="shape=partialRectangle;connectable=0;fillColor=none;top=0;left=0;bottom=0;right=0;align=left;spacingLeft=6;overflow=hidden;html=1;whiteSpace=wrap;" vertex="1" parent="vnzELrdjj4XrhpKjHz_1-93">
          <mxGeometry x="60" width="120" height="30" as="geometry">
            <mxRectangle width="120" height="30" as="alternateBounds" />
          </mxGeometry>
        </mxCell>
        <mxCell id="vnzELrdjj4XrhpKjHz_1-96" value="&lt;font style=&quot;font-size: 18px;&quot;&gt;T_FORMACION&lt;/font&gt;" style="shape=table;startSize=30;container=1;collapsible=1;childLayout=tableLayout;fixedRows=1;rowLines=0;fontStyle=1;align=center;resizeLast=1;html=1;whiteSpace=wrap;fillColor=#d5e8d4;strokeColor=#82b366;" vertex="1" parent="1">
          <mxGeometry x="915" y="1920" width="220" height="120" as="geometry" />
        </mxCell>
        <mxCell id="vnzELrdjj4XrhpKjHz_1-97" value="" style="shape=tableRow;horizontal=0;startSize=0;swimlaneHead=0;swimlaneBody=0;fillColor=none;collapsible=0;dropTarget=0;points=[[0,0.5],[1,0.5]];portConstraint=eastwest;top=0;left=0;right=0;bottom=0;html=1;" vertex="1" parent="vnzELrdjj4XrhpKjHz_1-96">
          <mxGeometry y="30" width="220" height="30" as="geometry" />
        </mxCell>
        <mxCell id="vnzELrdjj4XrhpKjHz_1-98" value="&lt;font style=&quot;font-size: 16px;&quot;&gt;PK&lt;/font&gt;" style="shape=partialRectangle;connectable=0;fillColor=none;top=0;left=0;bottom=0;right=0;fontStyle=1;overflow=hidden;html=1;whiteSpace=wrap;" vertex="1" parent="vnzELrdjj4XrhpKjHz_1-97">
          <mxGeometry width="60" height="30" as="geometry">
            <mxRectangle width="60" height="30" as="alternateBounds" />
          </mxGeometry>
        </mxCell>
        <mxCell id="vnzELrdjj4XrhpKjHz_1-99" value="&lt;font style=&quot;font-size: 16px;&quot;&gt;Email&lt;/font&gt;" style="shape=partialRectangle;connectable=0;fillColor=none;top=0;left=0;bottom=0;right=0;align=left;spacingLeft=6;fontStyle=5;overflow=hidden;html=1;whiteSpace=wrap;" vertex="1" parent="vnzELrdjj4XrhpKjHz_1-97">
          <mxGeometry x="60" width="160" height="30" as="geometry">
            <mxRectangle width="160" height="30" as="alternateBounds" />
          </mxGeometry>
        </mxCell>
        <mxCell id="vnzELrdjj4XrhpKjHz_1-100" value="" style="shape=tableRow;horizontal=0;startSize=0;swimlaneHead=0;swimlaneBody=0;fillColor=none;collapsible=0;dropTarget=0;points=[[0,0.5],[1,0.5]];portConstraint=eastwest;top=0;left=0;right=0;bottom=0;html=1;" vertex="1" parent="vnzELrdjj4XrhpKjHz_1-96">
          <mxGeometry y="60" width="220" height="30" as="geometry" />
        </mxCell>
        <mxCell id="vnzELrdjj4XrhpKjHz_1-101" value="" style="shape=partialRectangle;connectable=0;fillColor=none;top=0;left=0;bottom=0;right=0;editable=1;overflow=hidden;html=1;whiteSpace=wrap;" vertex="1" parent="vnzELrdjj4XrhpKjHz_1-100">
          <mxGeometry width="60" height="30" as="geometry">
            <mxRectangle width="60" height="30" as="alternateBounds" />
          </mxGeometry>
        </mxCell>
        <mxCell id="vnzELrdjj4XrhpKjHz_1-102" value="&lt;font style=&quot;font-size: 16px;&quot;&gt;Nombre&lt;/font&gt;" style="shape=partialRectangle;connectable=0;fillColor=none;top=0;left=0;bottom=0;right=0;align=left;spacingLeft=6;overflow=hidden;html=1;whiteSpace=wrap;" vertex="1" parent="vnzELrdjj4XrhpKjHz_1-100">
          <mxGeometry x="60" width="160" height="30" as="geometry">
            <mxRectangle width="160" height="30" as="alternateBounds" />
          </mxGeometry>
        </mxCell>
        <mxCell id="vnzELrdjj4XrhpKjHz_1-103" value="" style="shape=tableRow;horizontal=0;startSize=0;swimlaneHead=0;swimlaneBody=0;fillColor=none;collapsible=0;dropTarget=0;points=[[0,0.5],[1,0.5]];portConstraint=eastwest;top=0;left=0;right=0;bottom=0;html=1;" vertex="1" parent="vnzELrdjj4XrhpKjHz_1-96">
          <mxGeometry y="90" width="220" height="30" as="geometry" />
        </mxCell>
        <mxCell id="vnzELrdjj4XrhpKjHz_1-104" value="" style="shape=partialRectangle;connectable=0;fillColor=none;top=0;left=0;bottom=0;right=0;editable=1;overflow=hidden;html=1;whiteSpace=wrap;" vertex="1" parent="vnzELrdjj4XrhpKjHz_1-103">
          <mxGeometry width="60" height="30" as="geometry">
            <mxRectangle width="60" height="30" as="alternateBounds" />
          </mxGeometry>
        </mxCell>
        <mxCell id="vnzELrdjj4XrhpKjHz_1-105" value="&lt;font style=&quot;font-size: 16px;&quot;&gt;GradoUniversitario&lt;/font&gt;" style="shape=partialRectangle;connectable=0;fillColor=none;top=0;left=0;bottom=0;right=0;align=left;spacingLeft=6;overflow=hidden;html=1;whiteSpace=wrap;" vertex="1" parent="vnzELrdjj4XrhpKjHz_1-103">
          <mxGeometry x="60" width="160" height="30" as="geometry">
            <mxRectangle width="160" height="30" as="alternateBounds" />
          </mxGeometry>
        </mxCell>
        <mxCell id="vnzELrdjj4XrhpKjHz_1-106" value="&lt;font style=&quot;font-size: 16px;&quot;&gt;T_FORMACION_PROFESOR&lt;/font&gt;" style="shape=table;startSize=30;container=1;collapsible=1;childLayout=tableLayout;fixedRows=1;rowLines=0;fontStyle=1;align=center;resizeLast=1;html=1;whiteSpace=wrap;fillColor=#e3c800;strokeColor=#B09500;fontColor=#000000;" vertex="1" parent="1">
          <mxGeometry x="590" y="1760" width="240" height="90" as="geometry" />
        </mxCell>
        <mxCell id="vnzELrdjj4XrhpKjHz_1-107" value="" style="shape=tableRow;horizontal=0;startSize=0;swimlaneHead=0;swimlaneBody=0;fillColor=none;collapsible=0;dropTarget=0;points=[[0,0.5],[1,0.5]];portConstraint=eastwest;top=0;left=0;right=0;bottom=0;html=1;" vertex="1" parent="vnzELrdjj4XrhpKjHz_1-106">
          <mxGeometry y="30" width="240" height="30" as="geometry" />
        </mxCell>
        <mxCell id="vnzELrdjj4XrhpKjHz_1-108" value="&lt;font style=&quot;font-size: 16px;&quot;&gt;PK,FK1&lt;/font&gt;" style="shape=partialRectangle;connectable=0;fillColor=none;top=0;left=0;bottom=0;right=0;fontStyle=1;overflow=hidden;html=1;whiteSpace=wrap;" vertex="1" parent="vnzELrdjj4XrhpKjHz_1-107">
          <mxGeometry width="60" height="30" as="geometry">
            <mxRectangle width="60" height="30" as="alternateBounds" />
          </mxGeometry>
        </mxCell>
        <mxCell id="vnzELrdjj4XrhpKjHz_1-109" value="&lt;font style=&quot;font-size: 16px;&quot;&gt;CodigoProfesor&lt;/font&gt;" style="shape=partialRectangle;connectable=0;fillColor=none;top=0;left=0;bottom=0;right=0;align=left;spacingLeft=6;fontStyle=5;overflow=hidden;html=1;whiteSpace=wrap;" vertex="1" parent="vnzELrdjj4XrhpKjHz_1-107">
          <mxGeometry x="60" width="180" height="30" as="geometry">
            <mxRectangle width="180" height="30" as="alternateBounds" />
          </mxGeometry>
        </mxCell>
        <mxCell id="vnzELrdjj4XrhpKjHz_1-110" value="" style="shape=tableRow;horizontal=0;startSize=0;swimlaneHead=0;swimlaneBody=0;fillColor=none;collapsible=0;dropTarget=0;points=[[0,0.5],[1,0.5]];portConstraint=eastwest;top=0;left=0;right=0;bottom=1;html=1;" vertex="1" parent="vnzELrdjj4XrhpKjHz_1-106">
          <mxGeometry y="60" width="240" height="30" as="geometry" />
        </mxCell>
        <mxCell id="vnzELrdjj4XrhpKjHz_1-111" value="&lt;font style=&quot;font-size: 16px;&quot;&gt;PK,FK2&lt;/font&gt;" style="shape=partialRectangle;connectable=0;fillColor=none;top=0;left=0;bottom=0;right=0;fontStyle=1;overflow=hidden;html=1;whiteSpace=wrap;" vertex="1" parent="vnzELrdjj4XrhpKjHz_1-110">
          <mxGeometry width="60" height="30" as="geometry">
            <mxRectangle width="60" height="30" as="alternateBounds" />
          </mxGeometry>
        </mxCell>
        <mxCell id="vnzELrdjj4XrhpKjHz_1-112" value="&lt;font style=&quot;font-size: 16px;&quot;&gt;IdFormacion&lt;/font&gt;" style="shape=partialRectangle;connectable=0;fillColor=none;top=0;left=0;bottom=0;right=0;align=left;spacingLeft=6;fontStyle=5;overflow=hidden;html=1;whiteSpace=wrap;" vertex="1" parent="vnzELrdjj4XrhpKjHz_1-110">
          <mxGeometry x="60" width="180" height="30" as="geometry">
            <mxRectangle width="180" height="30" as="alternateBounds" />
          </mxGeometry>
        </mxCell>
        <mxCell id="vnzELrdjj4XrhpKjHz_1-113" value="" style="endArrow=ERoneToMany;html=1;rounded=0;startArrow=ERone;startFill=0;endFill=0;entryX=0;entryY=0.5;entryDx=0;entryDy=0;exitX=1;exitY=0.5;exitDx=0;exitDy=0;" edge="1" parent="1" source="vnzELrdjj4XrhpKjHz_1-90" target="vnzELrdjj4XrhpKjHz_1-107">
          <mxGeometry relative="1" as="geometry">
            <mxPoint x="580" y="1970" as="sourcePoint" />
            <mxPoint x="10" y="1730" as="targetPoint" />
            <Array as="points">
              <mxPoint x="560" y="1965" />
              <mxPoint x="560" y="1805" />
            </Array>
          </mxGeometry>
        </mxCell>
        <mxCell id="vnzELrdjj4XrhpKjHz_1-114" value="" style="endArrow=ERzeroToOne;html=1;rounded=0;startArrow=ERone;startFill=0;endFill=0;exitX=1;exitY=0.5;exitDx=0;exitDy=0;entryX=0;entryY=0.5;entryDx=0;entryDy=0;" edge="1" parent="1" source="vnzELrdjj4XrhpKjHz_1-56" target="vnzELrdjj4XrhpKjHz_1-93">
          <mxGeometry relative="1" as="geometry">
            <mxPoint x="403" y="1920" as="sourcePoint" />
            <mxPoint x="300" y="2020" as="targetPoint" />
            <Array as="points">
              <mxPoint x="320" y="1725" />
              <mxPoint x="330" y="1995" />
            </Array>
          </mxGeometry>
        </mxCell>
        <mxCell id="vnzELrdjj4XrhpKjHz_1-115" value="" style="endArrow=ERzeroToOne;html=1;rounded=0;startArrow=ERone;startFill=0;endFill=0;exitX=0;exitY=0.5;exitDx=0;exitDy=0;entryX=0;entryY=0.5;entryDx=0;entryDy=0;" edge="1" parent="1" source="vnzELrdjj4XrhpKjHz_1-56" target="vnzELrdjj4XrhpKjHz_1-76">
          <mxGeometry relative="1" as="geometry">
            <mxPoint x="370" y="1820" as="sourcePoint" />
            <mxPoint x="180" y="1850" as="targetPoint" />
            <Array as="points">
              <mxPoint x="60" y="1725" />
              <mxPoint x="60" y="1965" />
            </Array>
          </mxGeometry>
        </mxCell>
        <mxCell id="vnzELrdjj4XrhpKjHz_1-116" value="" style="endArrow=ERoneToMany;html=1;rounded=0;startArrow=ERone;startFill=0;endFill=0;exitX=0;exitY=0.5;exitDx=0;exitDy=0;entryX=1;entryY=0.5;entryDx=0;entryDy=0;" edge="1" parent="1" source="vnzELrdjj4XrhpKjHz_1-97" target="vnzELrdjj4XrhpKjHz_1-110">
          <mxGeometry relative="1" as="geometry">
            <mxPoint x="545" y="1995" as="sourcePoint" />
            <mxPoint x="590" y="1835" as="targetPoint" />
            <Array as="points">
              <mxPoint x="880" y="1965" />
              <mxPoint x="870" y="1835" />
              <mxPoint x="830" y="1835" />
            </Array>
          </mxGeometry>
        </mxCell>
        <mxCell id="vnzELrdjj4XrhpKjHz_1-117" value="" style="endArrow=ERone;html=1;rounded=0;entryX=0;entryY=0.5;entryDx=0;entryDy=0;exitX=0;exitY=0.5;exitDx=0;exitDy=0;startArrow=ERzeroToOne;startFill=0;endFill=0;" edge="1" parent="1" source="vnzELrdjj4XrhpKjHz_1-86" target="vnzELrdjj4XrhpKjHz_1-56">
          <mxGeometry relative="1" as="geometry">
            <mxPoint x="-180" y="2000" as="sourcePoint" />
            <mxPoint x="-20" y="2000" as="targetPoint" />
            <Array as="points">
              <mxPoint x="-240" y="2025" />
              <mxPoint x="-240" y="1725" />
            </Array>
          </mxGeometry>
        </mxCell>
        <mxCell id="vnzELrdjj4XrhpKjHz_1-118" value="" style="endArrow=ERzeroToOne;html=1;rounded=0;startArrow=ERone;startFill=0;endFill=0;exitX=0;exitY=0.5;exitDx=0;exitDy=0;entryX=1;entryY=0.5;entryDx=0;entryDy=0;" edge="1" parent="1" source="vnzELrdjj4XrhpKjHz_1-56" target="vnzELrdjj4XrhpKjHz_1-72">
          <mxGeometry relative="1" as="geometry">
            <mxPoint x="-180" y="1890" as="sourcePoint" />
            <mxPoint x="-20" y="1890" as="targetPoint" />
            <Array as="points">
              <mxPoint x="90" y="1725" />
              <mxPoint x="70" y="1615" />
            </Array>
          </mxGeometry>
        </mxCell>
        <mxCell id="vnzELrdjj4XrhpKjHz_1-119" value="" style="endArrow=ERzeroToOne;html=1;rounded=0;startArrow=ERone;startFill=0;endFill=0;exitX=0;exitY=0.5;exitDx=0;exitDy=0;entryX=1;entryY=0.5;entryDx=0;entryDy=0;" edge="1" parent="1" source="vnzELrdjj4XrhpKjHz_1-12" target="vnzELrdjj4XrhpKjHz_1-69">
          <mxGeometry relative="1" as="geometry">
            <mxPoint x="-180" y="1720" as="sourcePoint" />
            <mxPoint x="-20" y="1720" as="targetPoint" />
            <Array as="points">
              <mxPoint x="90" y="1405" />
              <mxPoint x="70" y="1585" />
            </Array>
          </mxGeometry>
        </mxCell>
      </root>
    </mxGraphModel>
  </diagram>
</mxfile>
